# Blender 3.3.1
# www.blender.org
mtllib Sword.mtl
o Cube
v 0.254570 0.653351 -0.373147
v 0.254570 -1.000000 -0.373147
v -0.260478 0.653351 -0.373147
v -0.260478 -1.000000 -0.373147
v -0.272294 -1.000000 0.000000
v -0.260478 0.000000 -0.373147
v 0.272294 0.652561 0.000000
v -0.272294 0.652561 0.000000
v -0.272294 1.349848 -0.518432
v 0.272294 -1.000000 0.000000
v 0.272294 0.000000 0.000000
v -0.272294 0.000000 0.000000
v 0.272294 1.349848 -0.518432
v -0.272294 6.014926 -0.518432
v 0.272294 6.014926 -0.518432
v 0.272294 6.014926 -0.518432
v 0.272294 6.014926 0.000000
v -0.272294 6.014926 0.000000
v 0.272294 6.014926 0.000000
v -0.272294 6.014926 0.000000
v -0.272294 6.014926 -0.518432
v -0.272294 6.014926 -0.518432
v 0.272294 6.014926 -0.518432
v 0.272294 6.014926 -0.518432
v 0.272294 6.014926 0.000000
v -0.272294 6.014926 0.000000
v 0.272294 6.014926 0.000000
v -0.272294 6.014926 0.000000
v -0.272294 6.014926 -0.518432
v -0.272294 7.383653 -0.105213
v 0.272294 7.383653 -0.105213
v 0.272294 7.383653 -0.105213
v 0.272294 7.383653 0.000000
v -0.272294 7.383653 0.000000
v 0.272294 7.383653 0.000000
v -0.272294 7.383653 0.000000
v -0.272294 7.383653 -0.105213
v -0.272294 1.349848 -1.255389
v 0.272294 1.349848 -1.255389
v -0.272294 0.653351 -1.255389
v 0.272294 0.653351 -1.255389
v -0.190677 2.022226 -2.065896
v 0.353911 2.022226 -2.065896
v -0.190677 1.633919 -2.065896
v 0.353911 1.633919 -2.065896
v 0.272294 -1.496928 0.000000
v 0.272294 -1.496928 -0.518432
v -0.272294 -1.496928 -0.518432
v -0.272294 -1.496928 0.000000
v 0.222740 -1.045217 -0.845564
v -0.222740 -1.045217 -0.845564
v 0.222740 -1.451711 -0.845564
v -0.222740 -1.451711 -0.845564
v 0.272294 -1.000000 0.000000
v -0.272294 -1.000000 0.000000
v 0.272294 -1.496928 0.000000
v 0.272294 -1.496928 -0.518432
v -0.272294 -1.496928 -0.518432
v -0.272294 -1.496928 0.000000
v 0.254570 0.653351 0.373147
v 0.254570 -1.000000 0.373147
v -0.260478 0.653351 0.373147
v -0.260478 -1.000000 0.373147
v -0.260478 0.000000 0.373147
v -0.272294 1.349848 0.518432
v 0.272294 1.349848 0.518432
v -0.272294 6.014926 0.518432
v 0.272294 6.014926 0.518432
v 0.272294 6.014926 0.518432
v -0.272294 6.014926 0.518432
v -0.272294 6.014926 0.518432
v 0.272294 6.014926 0.518432
v 0.272294 6.014926 0.518432
v -0.272294 6.014926 0.518432
v -0.272294 7.383653 0.105213
v 0.272294 7.383653 0.105213
v 0.272294 7.383653 0.105213
v -0.272294 7.383653 0.105213
v -0.272294 1.349848 1.255389
v 0.272294 1.349848 1.255389
v -0.272294 0.653351 1.255389
v 0.272294 0.653351 1.255389
v -0.190677 2.022226 2.065896
v 0.353911 2.022226 2.065896
v -0.190677 1.633919 2.065896
v 0.353911 1.633919 2.065896
v 0.272294 -1.496928 0.518432
v -0.272294 -1.496928 0.518432
v 0.222740 -1.045217 0.845564
v -0.222740 -1.045217 0.845564
v 0.222740 -1.451711 0.845564
v -0.222740 -1.451711 0.845564
v 0.272294 -1.496928 0.518432
v -0.272294 -1.496928 0.518432
vn -0.0000 -0.0000 -1.0000
vn -0.9936 0.0304 -0.1085
vn 1.0000 -0.0017 -0.0023
vn 0.9989 -0.0000 -0.0474
vn -0.9995 -0.0000 -0.0317
vn -1.0000 -0.0011 -0.0015
vn -0.9999 -0.0077 0.0073
vn -0.0000 1.0000 -0.0000
vn -0.0000 -0.0000 1.0000
vn -0.0000 0.2890 -0.9573
vn -1.0000 -0.0000 -0.0000
vn 1.0000 -0.0000 -0.0000
vn -0.9950 -0.0000 -0.1002
vn 0.9999 -0.0116 0.0109
vn -0.0000 -1.0000 -0.0000
vn -0.0000 0.7696 0.6385
vn 0.9950 -0.0000 0.1002
vn -0.0000 -0.6371 -0.7708
vn -0.0000 0.9955 -0.0953
vn 0.9942 0.0358 -0.1012
vn -0.0000 -0.9906 -0.1369
vn 0.9996 0.0207 -0.0199
vn -0.9998 0.0138 -0.0133
vn -0.9936 0.0304 0.1085
vn 1.0000 -0.0017 0.0023
vn 0.9989 -0.0000 0.0474
vn -0.9995 -0.0000 0.0317
vn -1.0000 -0.0011 0.0015
vn -0.9999 -0.0077 -0.0073
vn -0.0000 0.2890 0.9573
vn -0.9950 -0.0000 0.1002
vn 0.9999 -0.0116 -0.0109
vn -0.0000 0.7696 -0.6385
vn 0.9950 -0.0000 -0.1002
vn -0.0000 -0.6371 0.7708
vn -0.0000 0.9955 0.0953
vn 0.9942 0.0358 0.1012
vn -0.0000 -0.9906 0.1369
vn 0.9996 0.0207 0.0199
vn -0.9998 0.0138 0.0133
vt 0.625000 0.500000
vt 0.375000 0.500000
vt 0.625000 0.250000
vt 0.375000 0.250000
vt 0.000000 0.000000
vt 0.375000 0.125000
vt 0.500000 0.250000
vt 0.000000 0.000000
vt 0.625000 0.625000
vt 0.000000 0.000000
vt 0.625000 0.125000
vt 0.625000 0.250000
vt 0.000000 0.000000
vt 0.375000 0.625000
vt 0.500000 0.625000
vt 0.500000 0.125000
vt 0.625000 0.500000
vt 0.625000 0.250000
vt 0.625000 0.500000
vt 0.625000 0.500000
vt 0.625000 0.625000
vt 0.000000 0.000000
vt 0.625000 0.125000
vt 0.000000 0.000000
vt 0.625000 0.625000
vt 0.625000 0.125000
vt 0.625000 0.250000
vt 0.625000 0.250000
vt 0.625000 0.500000
vt 0.625000 0.500000
vt 0.625000 0.625000
vt 0.000000 0.000000
vt 0.625000 0.125000
vt 0.000000 0.000000
vt 0.625000 0.625000
vt 0.625000 0.125000
vt 0.625000 0.250000
vt 0.625000 0.250000
vt 0.625000 0.500000
vt 0.625000 0.500000
vt 0.625000 0.625000
vt 0.625000 0.125000
vt 0.000000 0.000000
vt 0.625000 0.625000
vt 0.000000 0.000000
vt 0.000000 0.000000
vt 0.625000 0.125000
vt 0.875000 0.500000
vt 0.625000 0.250000
vt 0.625000 0.250000
vt 0.625000 0.500000
vt 0.625000 0.250000
vt 0.625000 0.500000
vt 0.625000 0.250000
vt 0.625000 0.500000
vt 0.625000 0.250000
vt 0.625000 0.500000
vt 0.000000 0.000000
vt 0.375000 0.500000
vt 0.125000 0.500000
vt 0.375000 0.250000
vt 0.000000 0.000000
vt 0.375000 0.500000
vt 0.375000 0.250000
vt 0.375000 0.500000
vt 0.375000 0.250000
vt 0.125000 0.500000
vt 0.000000 0.000000
vt 0.375000 0.625000
vt 0.000000 0.000000
vt 0.375000 0.125000
vt 0.000000 0.000000
vt 0.375000 0.625000
vt 0.375000 0.500000
vt 0.125000 0.500000
vt 0.375000 0.250000
vt 0.000000 0.000000
vt 0.125000 0.625000
vt 0.375000 0.125000
vt 0.625000 0.500000
vt 0.375000 0.500000
vt 0.625000 0.250000
vt 0.375000 0.250000
vt 0.500000 0.250000
vt 0.625000 0.250000
vt 0.625000 0.500000
vt 0.625000 0.250000
vt 0.625000 0.500000
vt 0.625000 0.500000
vt 0.625000 0.250000
vt 0.625000 0.250000
vt 0.625000 0.500000
vt 0.625000 0.500000
vt 0.625000 0.250000
vt 0.625000 0.250000
vt 0.625000 0.500000
vt 0.625000 0.500000
vt 0.875000 0.500000
vt 0.625000 0.250000
vt 0.625000 0.250000
vt 0.625000 0.500000
vt 0.625000 0.250000
vt 0.625000 0.500000
vt 0.625000 0.250000
vt 0.625000 0.500000
vt 0.625000 0.250000
vt 0.625000 0.500000
vt 0.375000 0.500000
vt 0.125000 0.500000
vt 0.375000 0.250000
vt 0.375000 0.500000
vt 0.375000 0.250000
vt 0.375000 0.500000
vt 0.375000 0.250000
vt 0.125000 0.500000
vt 0.375000 0.500000
vt 0.125000 0.500000
vt 0.375000 0.250000
s 0
usemtl Material
f 2/2/1 4/4/1 6/7/1 3/3/1 1/1/1
f 48/61/2 4/4/2 51/64/2 53/66/2
f 17/21/3 19/25/3 7/9/3 1/1/3 13/17/3 15/19/3 16/20/3
f 2/2/4 1/1/4 7/9/4 11/15/4 10/14/4
f 12/16/5 8/11/5 3/3/5 6/7/5 4/4/5 5/6/5
f 8/11/6 18/23/6 20/26/6 21/27/6 14/18/6 9/12/6 3/3/6
f 3/3/7 9/12/7 38/50/7 40/52/7
f 18/22/8 19/24/8 27/34/8 26/32/8
f 13/17/1 9/12/1 14/18/1 15/19/1
f 24/30/8 23/29/8 31/39/8 32/40/8
f 15/19/8 14/18/8 22/28/8 23/29/8
f 19/25/8 17/21/8 25/31/8 27/35/8
f 20/26/8 18/23/8 26/33/8 28/36/8
f 21/27/8 20/26/8 28/36/8 29/37/8
f 17/21/8 16/20/8 24/30/8 25/31/8
f 16/20/8 15/19/8 23/29/8 24/30/8
f 14/18/8 21/27/8 29/37/8 22/28/8
f 31/39/8 30/38/8 37/48/8 36/46/8 34/43/8 35/45/8 33/41/8 32/40/8
f 22/28/8 29/37/8 37/49/8 30/38/8
f 26/32/9 27/34/9 35/45/9 34/43/9
f 23/29/10 22/28/10 30/38/10 31/39/10
f 27/35/8 25/31/8 33/41/8 35/44/8
f 28/36/8 26/33/8 34/42/8 36/47/8
f 29/37/11 28/36/11 36/47/11 37/49/11
f 25/31/12 24/30/12 32/40/12 33/41/12
f 40/52/13 38/50/13 42/54/13 44/56/13
f 9/12/8 13/17/8 39/51/8 38/50/8
f 13/17/14 1/1/14 41/53/14 39/51/14
f 1/1/15 3/3/15 40/52/15 41/53/15
f 38/50/16 39/51/16 43/55/16 42/54/16
f 39/51/17 41/53/17 45/57/17 43/55/17
f 41/53/18 40/52/18 44/56/18 45/57/18
f 42/54/1 43/55/1 45/57/1 44/56/1
f 2/2/8 10/14/8 54/69/8
f 47/59/8 2/2/8 57/74/8
f 10/13/9 5/5/9 49/62/9 46/58/9
f 10/13/8 46/58/8 56/72/8 54/68/8
f 51/64/1 50/63/1 52/65/1 53/66/1
f 4/4/19 2/2/19 50/63/19 51/64/19
f 2/2/20 47/59/20 52/65/20 50/63/20
f 47/59/21 48/60/21 53/67/21 52/65/21
f 58/75/15 57/74/15 56/73/15 59/78/15
f 2/2/22 54/69/22 56/73/22 57/74/22
f 55/71/23 4/4/23 58/76/23 59/79/23
f 48/60/8 47/59/8 57/74/8 58/75/8
f 49/62/8 5/5/8 55/70/8 59/77/8
f 4/4/8 48/61/8 58/76/8
f 5/6/8 4/4/8 55/71/8
f 46/58/8 49/62/8 59/77/8 56/72/8
f 8/10/9 7/8/9 19/24/9 18/22/9
f 61/81/9 60/80/9 62/82/9 64/84/9 63/83/9
f 88/110/24 92/114/24 90/112/24 63/83/24
f 17/21/25 69/89/25 68/88/25 66/86/25 60/80/25 7/9/25 19/25/25
f 61/81/26 10/14/26 11/15/26 7/9/26 60/80/26
f 12/16/27 5/6/27 63/83/27 64/84/27 62/82/27 8/11/27
f 8/11/28 62/82/28 65/85/28 67/87/28 70/90/28 20/26/28 18/23/28
f 62/82/29 81/102/29 79/100/29 65/85/29
f 66/86/9 68/88/9 67/87/9 65/85/9
f 73/93/8 77/97/8 76/96/8 72/92/8
f 68/88/8 72/92/8 71/91/8 67/87/8
f 70/90/8 74/94/8 28/36/8 20/26/8
f 17/21/8 25/31/8 73/93/8 69/89/8
f 69/89/8 73/93/8 72/92/8 68/88/8
f 67/87/8 71/91/8 74/94/8 70/90/8
f 76/96/8 77/97/8 33/41/8 35/45/8 34/43/8 36/46/8 78/98/8 75/95/8
f 71/91/8 75/95/8 78/99/8 74/94/8
f 72/92/30 76/96/30 75/95/30 71/91/30
f 74/94/11 78/99/11 36/47/11 28/36/11
f 25/31/12 33/41/12 77/97/12 73/93/12
f 81/102/31 85/106/31 83/104/31 79/100/31
f 65/85/8 79/100/8 80/101/8 66/86/8
f 66/86/32 80/101/32 82/103/32 60/80/32
f 60/80/15 82/103/15 81/102/15 62/82/15
f 79/100/33 83/104/33 84/105/33 80/101/33
f 80/101/34 84/105/34 86/107/34 82/103/34
f 82/103/35 86/107/35 85/106/35 81/102/35
f 83/104/9 85/106/9 86/107/9 84/105/9
f 61/81/8 54/69/8 10/14/8
f 87/108/8 93/116/8 61/81/8
f 90/112/9 92/114/9 91/113/9 89/111/9
f 63/83/36 90/112/36 89/111/36 61/81/36
f 61/81/37 89/111/37 91/113/37 87/108/37
f 87/108/38 91/113/38 92/115/38 88/109/38
f 94/117/15 59/78/15 56/73/15 93/116/15
f 61/81/39 93/116/39 56/73/39 54/69/39
f 55/71/40 59/79/40 94/118/40 63/83/40
f 88/109/8 94/117/8 93/116/8 87/108/8
f 63/83/8 94/118/8 88/110/8
f 5/6/8 55/71/8 63/83/8
