# Blender 3.3.1
# www.blender.org
mtllib Shield.mtl
o Cube
v -0.784453 12.010621 -6.537045
v -0.784453 -0.173353 -6.537045
v -1.656583 12.010621 -6.537045
v -1.656583 -0.173353 -6.537045
v -0.436065 -1.000000 0.000000
v 0.436065 15.780624 0.000000
v -0.436065 15.780624 0.000000
v 0.436065 -1.000000 0.000000
v -1.656583 15.920224 -3.512919
v -0.784453 15.920224 -3.512919
v -1.656583 14.787067 -5.024982
v -0.784453 14.787067 -5.024982
v -0.784453 12.010621 6.537045
v -0.784453 -0.173353 6.537045
v -1.656583 12.010621 6.537045
v -1.656583 -0.173353 6.537045
v -1.656583 15.920224 3.512919
v -0.784453 15.920224 3.512919
v -1.656583 14.787067 5.024982
v -0.784453 14.787067 5.024982
vn -0.0000 -0.9921 -0.1255
vn -0.0000 -0.0000 -1.0000
vn 0.9814 0.0176 -0.1912
vn -0.9814 -0.0176 0.1912
vn -0.0000 0.9992 0.0397
vn -0.0000 0.4783 -0.8782
vn -0.0000 0.8002 -0.5997
vn -0.0000 -0.9921 0.1255
vn -0.0000 -0.0000 1.0000
vn 0.9814 0.0176 0.1912
vn -0.9814 -0.0176 -0.1912
vn -0.0000 0.9992 -0.0397
vn -0.0000 0.4783 0.8782
vn -0.0000 0.8002 0.5997
vt 0.625000 0.500000
vt 0.375000 0.500000
vt 0.625000 0.250000
vt 0.875000 0.500000
vt 0.125000 0.500000
vt 0.375000 0.250000
vt 0.125000 0.625000
vt 0.375000 0.125000
vt 0.625000 0.625000
vt 0.625000 0.125000
vt 0.875000 0.625000
vt 0.375000 0.625000
vt 0.625000 0.187500
vt 0.875000 0.562500
vt 0.625000 0.562500
vt 0.625000 0.218750
vt 0.875000 0.531250
vt 0.625000 0.531250
vt 0.625000 0.500000
vt 0.375000 0.500000
vt 0.625000 0.250000
vt 0.875000 0.500000
vt 0.125000 0.500000
vt 0.375000 0.250000
vt 0.625000 0.187500
vt 0.875000 0.562500
vt 0.625000 0.562500
vt 0.625000 0.218750
vt 0.875000 0.531250
vt 0.625000 0.531250
s 0
usemtl Material
f 4/5/1 2/2/1 8/12/1 5/7/1
f 2/2/2 4/6/2 3/3/2 1/1/2
f 2/2/3 1/1/3 12/18/3 10/15/3 6/9/3 8/12/3
f 5/8/4 7/10/4 9/13/4 11/16/4 3/3/4 4/6/4
f 10/15/5 9/14/5 7/11/5 6/9/5
f 1/1/6 3/4/6 11/17/6 12/18/6
f 12/18/7 11/17/7 9/14/7 10/15/7
f 16/23/8 5/7/8 8/12/8 14/20/8
f 14/20/9 13/19/9 15/21/9 16/24/9
f 14/20/10 8/12/10 6/9/10 18/27/10 20/30/10 13/19/10
f 5/8/11 16/24/11 15/21/11 19/28/11 17/25/11 7/10/11
f 18/27/12 6/9/12 7/11/12 17/26/12
f 13/19/13 20/30/13 19/29/13 15/22/13
f 20/30/14 18/27/14 17/26/14 19/29/14
o Cube.001
v -0.245332 6.234238 0.000000
v -0.245332 9.758320 0.000000
v -0.245332 6.234238 -2.000277
v -0.245332 9.758320 -2.000277
v 0.583210 6.234238 0.000000
v 0.583210 9.758320 0.000000
v 0.583210 6.234238 -2.000277
v 0.583210 9.758320 -2.000277
v -0.245332 6.234238 2.000277
v -0.245332 9.758320 2.000277
v 0.583210 6.234238 2.000277
v 0.583210 9.758320 2.000277
vn -1.0000 -0.0000 -0.0000
vn -0.0000 -0.0000 -1.0000
vn 1.0000 -0.0000 -0.0000
vn -0.0000 -0.0000 1.0000
vn -0.0000 -1.0000 -0.0000
vn -0.0000 1.0000 -0.0000
vt 0.375000 1.000000
vt 0.375000 0.000000
vt 0.125000 0.750000
vt 0.625000 1.000000
vt 0.625000 0.000000
vt 0.875000 0.750000
vt 0.375000 0.250000
vt 0.125000 0.500000
vt 0.625000 0.250000
vt 0.875000 0.500000
vt 0.375000 0.750000
vt 0.625000 0.750000
vt 0.375000 0.500000
vt 0.625000 0.500000
vt 0.375000 0.250000
vt 0.125000 0.500000
vt 0.625000 0.250000
vt 0.875000 0.500000
vt 0.375000 0.500000
vt 0.625000 0.500000
s 0
usemtl Material.002
f 21/32/15 22/35/15 24/39/15 23/37/15
f 23/37/16 24/39/16 28/44/16 27/43/16
f 27/43/17 28/44/17 26/42/17 25/41/17
f 25/41/18 26/42/18 22/34/18 21/31/18
f 23/38/19 27/43/19 25/41/19 21/33/19
f 28/44/20 24/40/20 22/36/20 26/42/20
f 21/32/15 29/45/15 30/47/15 22/35/15
f 29/45/18 31/49/18 32/50/18 30/47/18
f 31/49/17 25/41/17 26/42/17 32/50/17
f 29/46/19 21/33/19 25/41/19 31/49/19
f 32/50/20 26/42/20 22/36/20 30/48/20
